<svg xmlns="http://www.w3.org/2000/svg" viewBox="0 0 64 64" width="64" height="64">
  <!-- Owl favicon for Uğur Can Altun -->
  <circle cx="32" cy="32" r="31" fill="#184a5e"/>
  <!-- Ear tufts -->
  <path d="M18 18 L13 7 L26 14 Z" fill="#e8d9b5"/>
  <path d="M46 18 L51 7 L38 14 Z" fill="#e8d9b5"/>
  <!-- Body -->
  <path d="M32 13 C18 13 12 24 12 36 C12 49 21 56 32 56 C43 56 52 49 52 36 C52 24 46 13 32 13 Z" fill="#e8d9b5"/>
  <!-- Eye discs -->
  <circle cx="23" cy="31" r="11" fill="#fff"/>
  <circle cx="41" cy="31" r="11" fill="#fff"/>
  <!-- Pupils -->
  <circle cx="23" cy="31" r="5" fill="#184a5e"/>
  <circle cx="41" cy="31" r="5" fill="#184a5e"/>
  <circle cx="24.5" cy="29.5" r="1.6" fill="#fff"/>
  <circle cx="42.5" cy="29.5" r="1.6" fill="#fff"/>
  <!-- Beak -->
  <path d="M32 36 L28 41 L36 41 Z" fill="#c9881f"/>
  <!-- Wing hints -->
  <path d="M15 38 C16 46 20 51 25 53 C20 50 18 44 18 38 Z" fill="#cbb98f"/>
  <path d="M49 38 C48 46 44 51 39 53 C44 50 46 44 46 38 Z" fill="#cbb98f"/>
</svg>
